<mxfile host="app.diagrams.net" modified="2022-07-11T13:54:24.067Z" agent="5.0 (Macintosh; Intel Mac OS X 10_15_7) AppleWebKit/537.36 (KHTML, like Gecko) Chrome/103.0.0.0 Safari/537.36" etag="b-Sxb3atdtVmUQo0Omk4" version="20.0.4" type="github">
  <diagram id="FTU6m_eaPZ_RoDYtO6FZ" name="Page-1">
    <mxGraphModel dx="1242" dy="752" grid="1" gridSize="10" guides="1" tooltips="1" connect="1" arrows="1" fold="1" page="1" pageScale="1" pageWidth="827" pageHeight="1169" math="0" shadow="0">
      <root>
        <mxCell id="0" />
        <mxCell id="1" parent="0" />
        <mxCell id="IwslQuK-jiWpeA-pguTB-5" value="" style="edgeStyle=orthogonalEdgeStyle;rounded=0;orthogonalLoop=1;jettySize=auto;html=1;exitX=1;exitY=0.75;exitDx=0;exitDy=0;" parent="1" target="IwslQuK-jiWpeA-pguTB-4" edge="1" source="IwslQuK-jiWpeA-pguTB-12">
          <mxGeometry relative="1" as="geometry">
            <mxPoint x="190" y="330" as="sourcePoint" />
          </mxGeometry>
        </mxCell>
        <mxCell id="IwslQuK-jiWpeA-pguTB-7" value="" style="edgeStyle=orthogonalEdgeStyle;rounded=0;orthogonalLoop=1;jettySize=auto;html=1;" parent="1" source="IwslQuK-jiWpeA-pguTB-4" target="IwslQuK-jiWpeA-pguTB-6" edge="1">
          <mxGeometry relative="1" as="geometry" />
        </mxCell>
        <mxCell id="IwslQuK-jiWpeA-pguTB-4" value="开发分支" style="rounded=1;whiteSpace=wrap;html=1;" parent="1" vertex="1">
          <mxGeometry x="280" y="300" width="120" height="60" as="geometry" />
        </mxCell>
        <mxCell id="IwslQuK-jiWpeA-pguTB-9" value="" style="edgeStyle=orthogonalEdgeStyle;rounded=0;orthogonalLoop=1;jettySize=auto;html=1;" parent="1" source="IwslQuK-jiWpeA-pguTB-6" target="IwslQuK-jiWpeA-pguTB-8" edge="1">
          <mxGeometry relative="1" as="geometry" />
        </mxCell>
        <mxCell id="IwslQuK-jiWpeA-pguTB-6" value="测试分支" style="whiteSpace=wrap;html=1;rounded=1;" parent="1" vertex="1">
          <mxGeometry x="480" y="300" width="120" height="60" as="geometry" />
        </mxCell>
        <mxCell id="IwslQuK-jiWpeA-pguTB-8" value="正式分支" style="whiteSpace=wrap;html=1;rounded=1;" parent="1" vertex="1">
          <mxGeometry x="680" y="300" width="120" height="60" as="geometry" />
        </mxCell>
        <mxCell id="IwslQuK-jiWpeA-pguTB-12" value="A代码" style="rounded=1;whiteSpace=wrap;html=1;" parent="1" vertex="1">
          <mxGeometry x="50" y="180" width="120" height="60" as="geometry" />
        </mxCell>
        <mxCell id="01tjM1FPafAvh3_oGWse-3" style="edgeStyle=orthogonalEdgeStyle;rounded=0;orthogonalLoop=1;jettySize=auto;html=1;entryX=0.25;entryY=0;entryDx=0;entryDy=0;" edge="1" parent="1" source="01tjM1FPafAvh3_oGWse-2" target="IwslQuK-jiWpeA-pguTB-4">
          <mxGeometry relative="1" as="geometry" />
        </mxCell>
        <mxCell id="01tjM1FPafAvh3_oGWse-2" value="B代码" style="rounded=1;whiteSpace=wrap;html=1;" vertex="1" parent="1">
          <mxGeometry x="50" y="250" width="120" height="60" as="geometry" />
        </mxCell>
        <mxCell id="01tjM1FPafAvh3_oGWse-5" style="edgeStyle=orthogonalEdgeStyle;rounded=0;orthogonalLoop=1;jettySize=auto;html=1;entryX=0.25;entryY=1;entryDx=0;entryDy=0;" edge="1" parent="1" source="01tjM1FPafAvh3_oGWse-4" target="IwslQuK-jiWpeA-pguTB-4">
          <mxGeometry relative="1" as="geometry" />
        </mxCell>
        <mxCell id="01tjM1FPafAvh3_oGWse-4" value="C代码" style="rounded=1;whiteSpace=wrap;html=1;" vertex="1" parent="1">
          <mxGeometry x="50" y="350" width="120" height="60" as="geometry" />
        </mxCell>
        <mxCell id="01tjM1FPafAvh3_oGWse-7" style="edgeStyle=orthogonalEdgeStyle;rounded=0;orthogonalLoop=1;jettySize=auto;html=1;entryX=0.5;entryY=1;entryDx=0;entryDy=0;" edge="1" parent="1" source="01tjM1FPafAvh3_oGWse-6" target="IwslQuK-jiWpeA-pguTB-4">
          <mxGeometry relative="1" as="geometry" />
        </mxCell>
        <mxCell id="01tjM1FPafAvh3_oGWse-6" value="D代码" style="rounded=1;whiteSpace=wrap;html=1;" vertex="1" parent="1">
          <mxGeometry x="50" y="420" width="120" height="60" as="geometry" />
        </mxCell>
      </root>
    </mxGraphModel>
  </diagram>
</mxfile>
